<?xml version="1.0" encoding="utf-8"?>
<!-- Generator: Adobe Illustrator 18.1.0, SVG Export Plug-In . SVG Version: 6.00 Build 0)  -->
<!DOCTYPE svg PUBLIC "-//W3C//DTD SVG 1.1//EN" "http://www.w3.org/Graphics/SVG/1.1/DTD/svg11.dtd">
<svg version="1.1" id="Calque_1" xmlns="http://www.w3.org/2000/svg" xmlns:xlink="http://www.w3.org/1999/xlink" x="0px" y="0px"
	 viewBox="0 0 423 188" enable-background="new 0 0 423 188" xml:space="preserve">
<g>
	<g>
		<linearGradient id="SVGID_1_" gradientUnits="userSpaceOnUse" x1="44.5588" y1="58.1358" x2="56.2421" y2="58.1358">
			<stop  offset="0" style="stop-color:#EB5D57"/>
			<stop  offset="3.032180e-02" style="stop-color:#E94B57"/>
			<stop  offset="1" style="stop-color:#EB5B5F"/>
		</linearGradient>
		<path fill="url(#SVGID_1_)" d="M54.2,63.8c0.8-0.2,1.4-0.8,1.7-1.5c0.3-0.7,0.4-1.5,0.2-2.1l-1.4-6.7c-0.4-1.3-1.7-2.2-3-2.2
			c-0.2,0-0.5,0-0.7,0.1l-4.4,1.4c-0.8,0.2-1.4,0.8-1.7,1.5c-0.3,0.7-0.4,1.5-0.1,2.4l2.6,6.1c0.4,1.3,1.7,2.2,3,2.2l0.2,0
			c0.2,0,0.4-0.1,0.5-0.1L54.2,63.8z"/>
		<linearGradient id="SVGID_2_" gradientUnits="userSpaceOnUse" x1="32.2956" y1="27.4346" x2="51.1311" y2="27.4346">
			<stop  offset="0" style="stop-color:#EB5D57"/>
			<stop  offset="3.032180e-02" style="stop-color:#E94B57"/>
			<stop  offset="1" style="stop-color:#EB5B5F"/>
		</linearGradient>
		<path fill="url(#SVGID_2_)" d="M41.4,44.1c0.4,1.3,1.6,2.2,2.9,2.2l0.2,0c0.2,0,0.3-0.1,0.5-0.1l4.2-1.3c0.7-0.2,1.3-0.8,1.6-1.5
			c0.3-0.7,0.3-1.5,0.1-2.3l-1.4-4.2l-5.4-20.8c-1.7-5.6-3.2-7.6-5.4-7.5c-0.1,0-0.2,0-0.3,0C38,8.6,37.5,8.8,37,9
			c-0.2,0.1-0.5,0.2-0.7,0.2c-1.6,0.4-2.7,1.2-3.4,2.4c-0.8,1.5-0.9,3.4-0.1,5.6L41.4,44.1z"/>
		<linearGradient id="SVGID_3_" gradientUnits="userSpaceOnUse" x1="54.9948" y1="42.0389" x2="78.5983" y2="42.0389">
			<stop  offset="0" style="stop-color:#EB5D57"/>
			<stop  offset="3.032180e-02" style="stop-color:#E94B57"/>
			<stop  offset="1" style="stop-color:#EB5B5F"/>
		</linearGradient>
		<path fill="url(#SVGID_3_)" d="M62.1,53.5c1.4,5.7,2.5,15.7,6.6,17.7c0.8,0.4,2.5,0.6,3.5,0.5c1.2-0.2,5.2-1.4,6.2-4.7
			c0.7-2.1-1.1-0.4-2.1,0.1c-1.9,0.7-2.6-1.2-3-2.3c-1-3.5-2.2-11.8-2.2-11.9l-4.1-23.6c0-0.1,0-0.2-0.1-0.3c0-0.1,0-0.2,0-0.3
			l-2.1-10.2c-1.1-5.4-3.5-6.4-5.3-6.3c-0.1,0-0.2,0-0.3,0c-0.2,0-0.5,0.1-0.7,0.1c-4.6,1.3-3.7,5.4-3.1,8.7L62.1,53.5z"/>
		<linearGradient id="SVGID_4_" gradientUnits="userSpaceOnUse" x1="15.8589" y1="56.5277" x2="46.9498" y2="56.5277">
			<stop  offset="0" style="stop-color:#EB5D57"/>
			<stop  offset="3.032180e-02" style="stop-color:#E94B57"/>
			<stop  offset="1" style="stop-color:#EB5B5F"/>
		</linearGradient>
		<path fill="url(#SVGID_4_)" d="M40.5,65.6c0-0.1-0.1-0.3-0.2-0.6l-2-4.5L30,40.5c0-0.1-0.1-0.1-0.1-0.2L29.8,40l-4.2-9.6
			c-1-2.3-2.4-5.4-5.3-5.3c-0.1,0-0.2,0-0.3,0c-0.6,0.1-1.2,0.3-1.8,0.6c-1.6,0.8-3.8,3.1-1.2,9.1l12.8,29.6l0.1,0.2
			c0.1,0.2,0.1,0.4,0.2,0.5l7.7,17.7c0.5,1.2,2.4,5.2,5.2,5.1c0.4,0,1.9-0.3,1.9-0.3c3.4-1.8,1.6-6.8,0.9-8.4L40.5,65.6z"/>
		<linearGradient id="SVGID_5_" gradientUnits="userSpaceOnUse" x1="7.5518" y1="62.0435" x2="21.6829" y2="62.0435">
			<stop  offset="0" style="stop-color:#EB5D57"/>
			<stop  offset="3.032180e-02" style="stop-color:#E94B57"/>
			<stop  offset="1" style="stop-color:#EB5B5F"/>
		</linearGradient>
		<path fill="url(#SVGID_5_)" d="M15.3,54.4C14.5,52.9,13,52,11.5,52c-0.1,0-0.2,0-0.4,0c-0.6,0.1-1.2,0.3-1.8,0.8
			c-1.9,1.4-2.3,4.4-1.1,6.7l5.6,10.2c0.9,1.5,2.3,2.4,3.9,2.4c0.1,0,0.2,0,0.4,0c0.6-0.1,1.2-0.3,1.8-0.8c1.9-1.5,2.3-4.4,1-6.8
			L15.3,54.4z"/>
		<linearGradient id="SVGID_6_" gradientUnits="userSpaceOnUse" x1="56.7801" y1="83.3712" x2="104.2998" y2="83.3712">
			<stop  offset="0" style="stop-color:#EB5D57"/>
			<stop  offset="3.032180e-02" style="stop-color:#E94B57"/>
			<stop  offset="1" style="stop-color:#EB5B5F"/>
		</linearGradient>
		<path fill="url(#SVGID_6_)" d="M101.6,112c-4.7-3.3-9.9-8-8.7-14.5c0.7-3.9,2.1-12.6,2.3-15.8c0.2-3.7,1.8-28.9,1.8-28.9
			c0-0.6,0.2-1.2,0.4-1.7c0.3-1.1,0.7-2.3-0.2-3.7c-0.6-0.9-1.7-1.3-3.1-1.3c-2.5,0.1-5.4,2.3-5.6,6.4c0,0.2,0,26.9-2.5,40.5
			c-0.5,2.7-2.7,7.8-5.2,11.1c-0.2,0.2-0.4,0.5-0.6,0.7l-0.6,0.7c-0.2,0.2-0.4,0.4-0.6,0.6c-0.2,0.2-0.5,0.5-0.7,0.7
			c-0.5,0.4-0.9,0.9-1.5,1.3l-1.1,1l-1.3,0.9c-0.6,0.5-1.3,0.9-2,1.3l-1.1,0.7l-2.6,1.3l-2.1,0.8c-0.7,0.3-1.3,0.5-2,0.7l-1.5,0.4
			c-0.3,0.1-0.6,0.2-0.9,0.2l-3.4,0.6c-1.2,0.2-2,1.2-1.9,2.4c0,0.6,0.3,1.2,0.7,1.6c0.5,0.4,1.1,0.7,1.7,0.6l1.6-0.1l2-0.1
			c0.4,0,0.8-0.1,1.1-0.1l1.8-0.3c0.8-0.1,1.7-0.2,2.5-0.5l2.4-0.6l2.5-0.9l0.9-0.3l1.4-0.6c0.9-0.4,1.9-0.9,2.8-1.4l1.6-1l1.5-1
			c0.8-0.5,1.4-1,2.1-1.6c0.3-0.2,0.5-0.4,0.8-0.7l0.4-0.4c0.4-0.3,0.8-0.5,1.2-0.5c1.1,0,2.4,0.7,3.6,1.4c4.6,2.9,9.4,4.8,12.2,4.7
			c0.3,0,0.5,0,0.7-0.1c0.9-0.2,1.3-0.6,1.6-0.9c0.3-0.4,0.3-0.9,0.3-1.1C104.1,113.8,103.3,113.2,101.6,112z"/>
	</g>
	<linearGradient id="SVGID_7_" gradientUnits="userSpaceOnUse" x1="269.9697" y1="112.0844" x2="373.0861" y2="112.0844">
		<stop  offset="0" style="stop-color:#EB5D57"/>
		<stop  offset="3.032180e-02" style="stop-color:#E94B57"/>
		<stop  offset="1" style="stop-color:#EB5B5F"/>
	</linearGradient>
	<path fill="url(#SVGID_7_)" d="M319.5,40c-14,1.3-25.4,8.7-34.1,22l-0.9-9.4c-0.4-4.3-3.8-7.3-7.9-7l-0.1,0c-2,0.1-3.8,1.1-5,2.7
		c-1.1,1.5-1.7,3.5-1.5,5.6l11.2,123.5c0.4,4.3,3.8,7.2,7.9,6.9l0.1,0c4.2-0.3,6.9-3.8,6.5-8.2l-3.7-40.2
		c10.7,11.1,23.2,16,37.4,14.8c12.2-1.1,23.8-7.6,31.9-17.9c8.8-11.1,12.8-26,11.4-41.8l0-0.4C369.5,55.1,342.7,37.9,319.5,40z
		 M297.6,69.3c5.7-7.3,13.9-12,22.4-12.8l0.6,0c16-1.2,33.3,10.8,35.6,36l0,0.4c1.1,11.7-1.4,21.9-7,29.4
		c-5.2,7-13.1,11.3-22.1,12.1l-0.5,0c-16.5,1.2-34.8-11.8-37-35.7l0-0.4C288.5,87.5,291.4,77.2,297.6,69.3z M289,181.7L289,181.7
		L289,181.7L289,181.7z"/>
	<linearGradient id="SVGID_8_" gradientUnits="userSpaceOnUse" x1="391.2811" y1="118.8238" x2="407.4456" y2="118.8238">
		<stop  offset="0" style="stop-color:#EB5D57"/>
		<stop  offset="3.032180e-02" style="stop-color:#E94B57"/>
		<stop  offset="1" style="stop-color:#EB5B5F"/>
	</linearGradient>
	<path fill="url(#SVGID_8_)" d="M400.7,108.8c-0.5-0.1-0.9-0.1-1.4-0.1c-3.8,0.2-6.9,3.1-7.4,7.1l-0.5,3.9c-0.6,4.6,2.3,8.5,6.7,9.1
		c0.5,0.1,0.9,0.1,1.4,0.1c3.8-0.2,6.9-3.1,7.4-7.1l0.5-3.9c0.3-2.2-0.2-4.3-1.4-5.9C404.7,110.2,402.8,109.1,400.7,108.8z"/>
	<linearGradient id="SVGID_9_" gradientUnits="userSpaceOnUse" x1="396.8828" y1="43.0528" x2="418.9494" y2="43.0528">
		<stop  offset="0" style="stop-color:#EB5D57"/>
		<stop  offset="3.032180e-02" style="stop-color:#E94B57"/>
		<stop  offset="1" style="stop-color:#EB5B5F"/>
	</linearGradient>
	<path fill="url(#SVGID_9_)" d="M417.7,4.9c-1.1-1.5-2.7-2.5-4.5-2.7L411.5,2c-0.4-0.1-0.8-0.1-1.2-0.1c-3.3,0.1-6,2.7-6.4,6.1
		l-7,70c-0.4,2.9,1.7,5.7,4.6,6.1c0.3,0,0.6,0,0.9,0c2.6-0.1,4.8-2.2,5.2-4.7l11.3-69.3l0-0.1C419.1,8.2,418.7,6.4,417.7,4.9z"/>
	<linearGradient id="SVGID_10_" gradientUnits="userSpaceOnUse" x1="189.297" y1="102.3363" x2="259.6216" y2="102.3363">
		<stop  offset="0" style="stop-color:#EB5D57"/>
		<stop  offset="3.032180e-02" style="stop-color:#E94B57"/>
		<stop  offset="1" style="stop-color:#EB5B5F"/>
	</linearGradient>
	<path fill="url(#SVGID_10_)" d="M229.8,143.4c-9.2,0.7-18.3-2.3-25.6-8.5c-7.9-6.8-13.1-16.8-14.5-28.1l0-0.3
		c-2.8-22.8,10.4-42.5,30.2-45c0.5-0.1,0.9-0.1,1.4-0.1c19.1-1.5,34.9,13.8,37.7,36.4c0.4,3.4-2.1,6.8-5.4,7.2l-49,6l0.2,0.5
		c3.8,12.2,13.3,19.6,24.3,18.7c0.3,0,0.6-0.1,0.9-0.1c7.4-0.9,13.3-4.5,18.3-11.2c1.3-1.8,3-2.4,4.2-2.5l0.3,0
		c3.5-0.3,6.5,2.2,6.9,5.7c0.1,1.2,0,3-1.3,4.9c-4.8,6.6-12.2,14.5-26.8,16.3C230.8,143.3,230.3,143.3,229.8,143.4z M221.4,74.2
		c-10.1,1.3-17.6,10.9-18.4,23.5l0,0.5l41.6-5.1l-0.1-0.5c-5.1-18.4-18.3-18.8-22.2-18.5C221.9,74.2,221.7,74.2,221.4,74.2z"/>
	<linearGradient id="SVGID_11_" gradientUnits="userSpaceOnUse" x1="128.0798" y1="111.3273" x2="180.043" y2="111.3273">
		<stop  offset="0" style="stop-color:#EB5D57"/>
		<stop  offset="3.032180e-02" style="stop-color:#E94B57"/>
		<stop  offset="1" style="stop-color:#EB5B5F"/>
	</linearGradient>
	<path fill="url(#SVGID_11_)" d="M167.7,79.2l-0.3,0c-3.3,0.4-5.7,3.5-5.3,6.9l2.2,17.7l-21.8,2.7l-2.2-17.7
		c-0.4-3.3-3.3-5.7-6.5-5.5l-0.3,0c-3.3,0.4-5.7,3.5-5.3,6.9L134,138c0.4,3.3,3.2,5.7,6.5,5.5l0.3,0c1.6-0.2,3-1,4-2.3
		c1-1.3,1.5-3,1.3-4.6l-2.2-18l21.8-2.7l2.2,18c0.4,3.3,3.3,5.7,6.5,5.5l0.3,0c1.6-0.2,3.1-1.1,4.1-2.5c0.9-1.3,1.4-2.9,1.2-4.5
		l-5.8-47.7C173.7,81.4,170.9,79,167.7,79.2z"/>
</g>
</svg>
